<?xml version="1.0" standalone="no"?><!DOCTYPE svg PUBLIC "-//W3C//DTD SVG 1.1//EN" "http://www.w3.org/Graphics/SVG/1.1/DTD/svg11.dtd"><svg t="1652325723578" class="icon" viewBox="0 0 1181 1024" version="1.1" xmlns="http://www.w3.org/2000/svg" p-id="21989" xmlns:xlink="http://www.w3.org/1999/xlink" width="36.90625" height="32"><defs><style type="text/css"></style></defs><path d="M189.912615 79.320615c-27.411692 0-40.487385 23.867077-40.487384 51.987693v766.030769c0 28.041846 13.075692 49.782154 40.487384 49.782154H1040.541538c27.411692 0 58.998154-21.740308 58.998154-49.782154V304.836923c0-28.041846-31.586462-51.987692-59.076923-51.987692H545.083077a34.107077 34.107077 0 0 1-33.004308-26.545231L477.341538 79.320615H189.833846zM1040.541538 1016.516923H189.833846c-64.827077 0-108.307692-52.854154-108.307692-119.177846V131.308308c0-66.402462 43.480615-121.383385 108.307692-121.383385h314.052923c15.675077 0 29.302154 10.948923 32.925539 26.545231l34.816 146.983384h468.834461c64.827077 0 126.818462 55.059692 126.818462 121.383385v592.502154c0 66.323692-61.991385 119.177846-126.818462 119.177846z" p-id="21990"></path><path d="M1071.497846 463.241846H188.809846c-38.990769 0-70.656-15.517538-70.656-34.658461 0-19.219692 31.665231-34.737231 70.656-34.737231h882.688c39.069538 0 70.656 15.517538 70.656 34.658461 0 19.219692-31.586462 34.737231-70.656 34.737231" p-id="21991"></path></svg>