<?xml version="1.0" standalone="no"?><!DOCTYPE svg PUBLIC "-//W3C//DTD SVG 1.1//EN" "http://www.w3.org/Graphics/SVG/1.1/DTD/svg11.dtd"><svg t="1652325166112" class="icon" viewBox="0 0 1024 1024" version="1.1" xmlns="http://www.w3.org/2000/svg" p-id="9788" xmlns:xlink="http://www.w3.org/1999/xlink" width="32" height="32"><defs><style type="text/css"></style></defs><path d="M685.663248 472.602711c-1.208525-6.230911-2.053776-12.558014-3.683902-18.676361-14.22191-53.378721-49.696866-84.932368-102.068653-99.081623-6.29845-1.701758-12.945847-1.64957-19.091824-4.015454 40.420595 0 80.84119 0.042979 121.261785-0.085958 3.053546-0.00921 3.677762 0.615007 3.667529 3.667529C685.619246 393.808134 685.663248 433.205423 685.663248 472.602711z" p-id="9789"></path><path d="M64.138786 876.466875c0.042979-6.992251-0.004093-9.475815 0-14.117532 0.177032-207.579709 0.121773-415.158395 0.171915-622.738104 0.010233-43.446511 20.946055-74.454736 56.930617-84.297918 10.827603-2.961448 21.967314-4.073782 33.275871-4.066619 148.926868 0.089028 297.853735 0.166799 446.779579-0.1361 12.631692-0.025583 16.737196 1.530866 9.485025 14.517645-10.912537 19.541055-20.653389 39.778982-30.029944 60.118216-4.02671 8.733918-9.321296 11.171434-18.730597 11.147898-132.095527-0.334621-264.193101 0.020466-396.285558-0.593518-13.906731-0.064468-16.495696 3.879354-16.468067 16.921391 0.425695 201.458291 0.455371 402.918629-0.049119 604.375897-0.034792 13.821797 3.790326 16.629749 16.95823 16.601096 201.458291-0.431835 402.918629-0.494257 604.375897 0.089028 15.08558 0.044002 17.028838-5.231141 16.98893-18.173918-0.401136-130.564661-0.084934-261.131369-0.523933-391.69603-0.037862-11.31265 3.192715-17.385972 13.500479-22.098297 23.508413-10.745738 46.447868-22.735817 69.756737-34.288944 3.833305 5.4225 2.217505 10.590196 2.220574 15.358803 0.105401 147.397025 0.109494 294.793026 0.073678 442.190051-0.013303 53.962006-39.333844 93.481068-93.577259 93.530187-213.18845 0.192382-426.377924 0.11461-639.566374 0.37146-32.67826 0.039909-68.327178-14.271028-74.916247-57.259098C64.183811 900.095016 64.131623 877.531114 64.138786 876.466875z" p-id="9790"></path><path d="M957.949678 196.869786c-20.336164 14.483876-35.669384 34.227546-53.66627 51.17452-9.857509 9.282411-18.899442 19.432585-30.913057 31.891338-6.571672-81.625042-52.079122-120.371508-127.776152-129.159662 13.70821-27.372418 26.838252-53.103452 39.448454-79.087243 3.437286-7.082302 34.534538-10.199293 36.335556-10.199293 2.278903 0 10.123568 0.196475 11.260461 0.283456 50.488905 3.882424 81.811284 33.880645 104.745622 75.93239 8.714476 15.978926 12.70537 33.742499 20.565385 49.982368C957.949678 190.748369 957.949678 193.809077 957.949678 196.869786z" p-id="9791"></path><path d="M722.522738 192.968943c38.983873 0.213871 66.569138 16.59598 85.056188 48.14758 4.854565 8.28571 8.532327 17.319457 12.17939 26.242687 13.126972 32.115442 11.010775 57.226353-17.84032 84.47188-88.51394 83.585697-173.405375 171.014932-259.259742 257.393231-8.04421 8.093329-15.028275 9.710153-25.231661 6.323009-57.31845-19.026332-92.059696-59.366086-110.547769-115.520013-2.069125-6.28617-0.558725-10.213619 3.934612-14.690584 95.646384-95.323019 191.227276-190.71153 286.572808-286.335401C705.727213 190.636828 715.63077 195.107653 722.522738 192.968943z" p-id="9792"></path><path d="M361.747951 536.289196c42.49893 42.829458 82.839707 83.48439 124.58753 125.556601-15.267728 0-30.141484 0-45.01524 0-22.886243 0-45.771463-0.045025-68.657706 0.028653-5.874801 0.01842-11.07422 0.329505-11.019984-8.265244C361.884051 615.159498 361.747951 576.708767 361.747951 536.289196z" p-id="9793"></path></svg>