<?xml version="1.0" standalone="no"?><!DOCTYPE svg PUBLIC "-//W3C//DTD SVG 1.1//EN" "http://www.w3.org/Graphics/SVG/1.1/DTD/svg11.dtd"><svg t="1652325582557" class="icon" viewBox="0 0 1024 1024" version="1.1" xmlns="http://www.w3.org/2000/svg" p-id="14390" width="32" height="32" xmlns:xlink="http://www.w3.org/1999/xlink"><defs><style type="text/css"></style></defs><path d="M666.331429 280.722286C666.331429 128.073143 543.232 4.388571 391.533714 4.388571c-6.875429 0-13.677714 0.585143-20.48 1.097143H128.512V5.851429H4.388571v1013.174857h139.337143V556.251429H370.102857c10.605714 1.243429 10.459429 0.877714 21.430857 0.877714 151.698286 0 274.651429-123.757714 274.651429-276.406857z m-296.228572 133.12H143.798857V146.651429H370.102857c66.194286 3.218286 126.829714 65.097143 126.829714 132.388571 0 67.437714-60.708571 131.510857-126.829714 134.656z m635.245714 355.766857c-4.388571-8.996571-16.530286-19.236571-16.530285-19.236572l-49.956572-136.777142c-10.386286-25.892571-40.96-39.497143-54.272-39.497143H622.153143c-13.385143 0-43.885714 13.604571-54.272 39.497143l-49.956572 136.777142s-12.141714 10.24-16.530285 19.236572c-4.461714 8.996571-9.289143 17.042286-9.289143 77.677714 0 59.099429 11.629714 80.091429 25.453714 87.405714l10.971429 6.363429v54.857143c0 17.846857 4.169143 23.113143 20.699428 23.113143h37.083429c16.530286 0 27.721143 0 27.721143-17.700572v-53.394285h278.674285v53.394285c0 17.773714 11.117714 17.700571 27.648 17.700572h37.156572c16.530286 0 20.699429-5.266286 20.699428-23.113143v-54.857143l10.971429-6.363429c13.897143-7.314286 25.453714-28.306286 25.453714-87.405714 0-60.708571-4.827429-68.681143-9.289143-77.677714z m-420.864-35.254857c2.048-7.753143 15.945143-68.388571 22.089143-89.380572 2.56-7.314286 19.017143-28.891429 38.180572-27.648h217.234285c19.163429-1.243429 35.620571 20.333714 38.107429 27.648 6.217143 20.992 20.041143 81.627429 22.162286 89.380572 2.486857 9.142857-5.705143 8.338286-5.705143 8.338285H590.262857s-8.192 0.804571-5.705143-8.338285z m5.339429 148.406857a40.448 40.448 0 0 1-39.936-40.813714c0-22.528 17.92-40.740571 39.936-40.813715 22.016 0 39.936 18.285714 39.936 40.813715a40.448 40.448 0 0 1-39.936 40.813714z m328.338286 0c-22.016 0-40.009143-18.358857-40.009143-40.813714 0-22.528 17.92-40.740571 40.009143-40.813715 21.942857 0 39.862857 18.285714 39.862857 40.813715a40.448 40.448 0 0 1-39.862857 40.813714z" p-id="14391"></path></svg>